STARTFONT 2.1
COMMENT Font grabbed from the X server. Robert Templeman: grabbed lucida console & edited most latin glyphs
FONT -bertys-nude-medium-i-normal--12-120-75-75-p-67-iso8859-1
SIZE 12 75 75
FONTBOUNDINGBOX 12 15 0 -3
STARTPROPERTIES 28
FOUNDRY "Bertys"
FAMILY_NAME "nude"
WEIGHT_NAME "Medium"SLANT "R"
SETWIDTH_NAME "Normal"
ADD_STYLE_NAME ""
PIXEL_SIZE 12
POINT_SIZE 120
RESOLUTION_X 75
RESOLUTION_Y 75
SPACING "P"
AVERAGE_WIDTH 67
CHARSET_REGISTRY "ISO8859"
CHARSET_ENCODING "14"
CAP_HEIGHT 9
X_HEIGHT 7
FACE_NAME "Bertys"
COPY0RIGHT "whatever lucida console was"
NOTICE "Helvetica is a trademark of Linotype-Hell AG and/or its subsidiaries.  "
_DEC_DEVICE_FONTNAMES "PS=Helvetica"
RELATIVE_SETWIDTH 50
RELATIVE_WEIGHT 50
FULL_NAME "Bertys nude font"
WEIGHT 10
RESOLUTION 103
QUAD_WIDTH 7
FONT_ASCENT 12
FONT_DESCENT 1
_XMBDFED_INFO "Edited with xmbdfed 4.7."
ENDPROPERTIES
CHARS 192
STARTCHAR char0
ENCODING 0
SWIDTH 640 0
DWIDTH 7 0
BBX 9 9 1 0
BITMAP
2A80
0000
4100
0000
4100
0000
8200
0000
AA00
ENDCHAR
STARTCHAR char32
ENCODING 32
SWIDTH 640 0
DWIDTH 7 0
BBX 0 0 0 0
BITMAP
ENDCHAR
STARTCHAR char33
ENCODING 33
SWIDTH 640 0
DWIDTH 7 0
BBX 3 10 1 0
BITMAP
20
20
20
40
40
40
40
00
80
80
ENDCHAR
STARTCHAR char34
ENCODING 34
SWIDTH 640 0
DWIDTH 7 0
BBX 5 3 0 6
BITMAP
D8
D8
D8
ENDCHAR
STARTCHAR char35
ENCODING 35
SWIDTH 640 0
DWIDTH 7 0
BBX 8 9 0 0
BITMAP
0A
0A
14
7E
24
7E
50
50
50
ENDCHAR
STARTCHAR char36
ENCODING 36
SWIDTH 640 0
DWIDTH 7 0
BBX 7 9 0 -1
BITMAP
08
1C
54
50
38
14
A8
70
20
ENDCHAR
STARTCHAR char37
ENCODING 37
SWIDTH 640 0
DWIDTH 7 0
BBX 7 10 1 0
BITMAP
22
52
54
48
10
10
24
54
94
88
ENDCHAR
STARTCHAR char38
ENCODING 38
SWIDTH 640 0
DWIDTH 7 0
BBX 8 10 0 0
BITMAP
0C
12
12
28
12
2A
46
88
9C
64
ENDCHAR
STARTCHAR char39
ENCODING 39
SWIDTH 640 0
DWIDTH 7 0
BBX 2 3 1 6
BITMAP
C0
C0
C0
ENDCHAR
STARTCHAR char40
ENCODING 40
SWIDTH 640 0
DWIDTH 7 0
BBX 5 11 1 -1
BITMAP
08
18
10
30
40
40
40
60
40
60
20
ENDCHAR
STARTCHAR char41
ENCODING 41
SWIDTH 640 0
DWIDTH 7 0
BBX 5 11 1 -1
BITMAP
20
30
10
18
10
10
10
30
40
C0
80
ENDCHAR
STARTCHAR char42
ENCODING 42
SWIDTH 640 0
DWIDTH 7 0
BBX 7 7 0 1
BITMAP
24
24
18
7E
30
48
48
ENDCHAR
STARTCHAR char43
ENCODING 43
SWIDTH 640 0
DWIDTH 7 0
BBX 8 7 0 1
BITMAP
08
08
08
7F
10
10
10
ENDCHAR
STARTCHAR char44
ENCODING 44
SWIDTH 640 0
DWIDTH 7 0
BBX 4 4 0 -2
BITMAP
30
60
60
C0
ENDCHAR
STARTCHAR char45
ENCODING 45
SWIDTH 640 0
DWIDTH 7 0
BBX 6 2 0 3
BITMAP
FC
FC
ENDCHAR
STARTCHAR char46
ENCODING 46
SWIDTH 640 0
DWIDTH 7 0
BBX 2 3 1 0
BITMAP
C0
C0
C0
ENDCHAR
STARTCHAR char47
ENCODING 47
SWIDTH 640 0
DWIDTH 7 0
BBX 7 10 0 0
BITMAP
02
02
04
08
10
10
20
40
80
80
ENDCHAR
STARTCHAR char48
ENCODING 48
SWIDTH 640 0
DWIDTH 7 0
BBX 7 9 0 0
BITMAP
1C
22
44
44
44
44
88
88
70
ENDCHAR
STARTCHAR char49
ENCODING 49
SWIDTH 640 0
DWIDTH 7 0
BBX 6 9 0 0
BITMAP
08
38
10
10
10
10
20
20
70
ENDCHAR
STARTCHAR char50
ENCODING 50
SWIDTH 640 0
DWIDTH 7 0
BBX 7 9 0 0
BITMAP
1C
22
04
08
10
20
80
80
F8
ENDCHAR
STARTCHAR char51
ENCODING 51
SWIDTH 640 0
DWIDTH 7 0
BBX 7 9 0 0
BITMAP
1C
22
04
18
04
04
88
88
70
ENDCHAR
STARTCHAR char52
ENCODING 52
SWIDTH 640 0
DWIDTH 7 0
BBX 8 9 0 0
BITMAP
02
06
14
24
44
44
FC
08
08
ENDCHAR
STARTCHAR char53
ENCODING 53
SWIDTH 640 0
DWIDTH 7 0
BBX 7 9 0 0
BITMAP
3E
20
40
78
04
04
88
88
70
ENDCHAR
STARTCHAR char54
ENCODING 54
SWIDTH 640 0
DWIDTH 7 0
BBX 7 9 0 0
BITMAP
1C
22
40
58
64
44
88
88
70
ENDCHAR
STARTCHAR char55
ENCODING 55
SWIDTH 640 0
DWIDTH 7 0
BBX 7 9 0 0
BITMAP
3E
02
08
08
10
10
20
40
40
ENDCHAR
STARTCHAR char56
ENCODING 56
SWIDTH 640 0
DWIDTH 7 0
BBX 7 9 0 0
BITMAP
1C
22
44
38
44
44
88
88
70
ENDCHAR
STARTCHAR char57
ENCODING 57
SWIDTH 640 0
DWIDTH 7 0
BBX 7 9 0 0
BITMAP
1C
22
44
44
3C
04
08
88
70
ENDCHAR
STARTCHAR char58
ENCODING 58
SWIDTH 640 0
DWIDTH 7 0
BBX 3 6 1 0
BITMAP
60
60
00
00
C0
C0
ENDCHAR
STARTCHAR char59
ENCODING 59
SWIDTH 640 0
DWIDTH 7 0
BBX 5 8 1 -2
BITMAP
18
30
00
00
30
60
40
80
ENDCHAR
STARTCHAR char60
ENCODING 60
SWIDTH 640 0
DWIDTH 7 0
BBX 8 9 0 0
BITMAP
03
06
18
30
60
30
30
18
0C
ENDCHAR
STARTCHAR char61
ENCODING 61
SWIDTH 640 0
DWIDTH 7 0
BBX 6 4 0 2
BITMAP
7C
00
00
F8
ENDCHAR
STARTCHAR char62
ENCODING 62
SWIDTH 640 0
DWIDTH 7 0
BBX 8 9 0 0
BITMAP
30
18
18
0C
06
0C
30
60
C0
ENDCHAR
STARTCHAR char63
ENCODING 63
SWIDTH 640 0
DWIDTH 7 0
BBX 7 9 0 0
BITMAP
1C
22
44
08
08
10
20
00
20
ENDCHAR
STARTCHAR char64
ENCODING 64
SWIDTH 640 0
DWIDTH 7 0
BBX 8 9 0 -1
BITMAP
0E
11
49
55
55
55
9E
40
3E
ENDCHAR
STARTCHAR char65
ENCODING 65
SWIDTH 640 0
DWIDTH 7 0
BBX 8 9 0 0
BITMAP
0C
0C
24
24
24
7E
84
84
84
ENDCHAR
STARTCHAR char66
ENCODING 66
SWIDTH 640 0
DWIDTH 7 0
BBX 7 9 0 0
BITMAP
3C
22
44
44
78
44
88
88
F0
ENDCHAR
STARTCHAR char67
ENCODING 67
SWIDTH 640 0
DWIDTH 7 0
BBX 7 9 0 0
BITMAP
0E
10
40
40
40
40
80
40
38
ENDCHAR
STARTCHAR char68
ENCODING 68
SWIDTH 640 0
DWIDTH 7 0
BBX 7 9 0 0
BITMAP
38
24
44
44
44
44
88
90
E0
ENDCHAR
STARTCHAR char69
ENCODING 69
SWIDTH 640 0
DWIDTH 7 0
BBX 7 9 0 0
BITMAP
3E
20
40
40
78
40
80
80
F8
ENDCHAR
STARTCHAR char70
ENCODING 70
SWIDTH 640 0
DWIDTH 7 0
BBX 6 9 0 0
BITMAP
3C
20
40
40
78
40
80
80
80
ENDCHAR
STARTCHAR char71
ENCODING 71
SWIDTH 640 0
DWIDTH 7 0
BBX 7 9 0 0
BITMAP
1C
22
40
40
40
4C
88
88
70
ENDCHAR
STARTCHAR char72
ENCODING 72
SWIDTH 640 0
DWIDTH 7 0
BBX 7 9 0 0
BITMAP
22
22
44
44
7C
44
88
88
88
ENDCHAR
STARTCHAR char73
ENCODING 73
SWIDTH 640 0
DWIDTH 7 0
BBX 7 9 0 0
BITMAP
3E
08
10
10
10
10
20
20
F8
ENDCHAR
STARTCHAR char74
ENCODING 74
SWIDTH 640 0
DWIDTH 7 0
BBX 7 9 0 0
BITMAP
0E
04
08
08
08
08
90
90
60
ENDCHAR
STARTCHAR char75
ENCODING 75
SWIDTH 640 0
DWIDTH 7 0
BBX 7 9 0 0
BITMAP
22
24
50
60
60
50
90
88
88
ENDCHAR
STARTCHAR char76
ENCODING 76
SWIDTH 640 0
DWIDTH 7 0
BBX 7 9 0 0
BITMAP
20
20
40
40
40
40
80
80
F8
ENDCHAR
STARTCHAR char77
ENCODING 77
SWIDTH 640 0
DWIDTH 7 0
BBX 8 9 0 0
BITMAP
21
21
66
66
5A
5A
84
84
84
ENDCHAR
STARTCHAR char78
ENCODING 78
SWIDTH 640 0
DWIDTH 7 0
BBX 7 9 0 0
BITMAP
22
22
64
64
54
4C
98
88
88
ENDCHAR
STARTCHAR char79
ENCODING 79
SWIDTH 640 0
DWIDTH 7 0
BBX 8 9 0 0
BITMAP
0C
12
42
42
42
42
84
48
30
ENDCHAR
STARTCHAR char80
ENCODING 80
SWIDTH 640 0
DWIDTH 7 0
BBX 7 9 0 0
BITMAP
3C
22
44
44
44
78
80
80
80
ENDCHAR
STARTCHAR char81
ENCODING 81
SWIDTH 640 0
DWIDTH 7 0
BBX 8 9 0 0
BITMAP
0C
12
42
42
42
52
94
48
34
ENDCHAR
STARTCHAR char82
ENCODING 82
SWIDTH 640 0
DWIDTH 7 0
BBX 7 9 0 0
BITMAP
3C
22
44
44
78
48
88
88
88
ENDCHAR
STARTCHAR char83
ENCODING 83
SWIDTH 640 0
DWIDTH 7 0
BBX 7 9 0 0
BITMAP
1E
20
40
60
38
0C
08
08
F0
ENDCHAR
STARTCHAR char84
ENCODING 84
SWIDTH 640 0
DWIDTH 7 0
BBX 7 9 0 0
BITMAP
3E
08
10
10
10
10
20
20
20
ENDCHAR
STARTCHAR char85
ENCODING 85
SWIDTH 640 0
DWIDTH 7 0
BBX 7 9 0 0
BITMAP
22
22
44
44
44
44
88
88
70
ENDCHAR
STARTCHAR char86
ENCODING 86
SWIDTH 640 0
DWIDTH 7 0
BBX 7 9 0 0
BITMAP
22
22
44
28
28
28
20
20
20
ENDCHAR
STARTCHAR char87
ENCODING 87
SWIDTH 640 0
DWIDTH 7 0
BBX 8 9 0 0
BITMAP
21
21
42
5A
5A
24
48
48
48
ENDCHAR
STARTCHAR char88
ENCODING 88
SWIDTH 640 0
DWIDTH 7 0
BBX 8 9 0 0
BITMAP
21
21
24
24
18
24
48
84
84
ENDCHAR
STARTCHAR char89
ENCODING 89
SWIDTH 640 0
DWIDTH 7 0
BBX 7 9 0 0
BITMAP
22
22
44
28
38
10
20
20
20
ENDCHAR
STARTCHAR char90
ENCODING 90
SWIDTH 640 0
DWIDTH 7 0
BBX 7 9 0 0
BITMAP
3E
02
04
08
10
20
80
80
F8
ENDCHAR
STARTCHAR char91
ENCODING 91
SWIDTH 640 0
DWIDTH 7 0
BBX 5 11 3 -1
BITMAP
38
20
20
20
40
40
40
40
80
80
E0
ENDCHAR
STARTCHAR char92
ENCODING 92
SWIDTH 640 0
DWIDTH 7 0
BBX 7 9 2 0
BITMAP
20
10
20
10
10
10
10
10
08
ENDCHAR
STARTCHAR char93
ENCODING 93
SWIDTH 640 0
DWIDTH 7 0
BBX 5 11 0 -1
BITMAP
38
08
08
08
10
10
10
10
20
20
E0
ENDCHAR
STARTCHAR char94
ENCODING 94
SWIDTH 640 0
DWIDTH 7 0
BBX 8 5 0 4
BITMAP
08
1C
6C
C6
82
ENDCHAR
STARTCHAR char95
ENCODING 95
SWIDTH 640 0
DWIDTH 7 0
BBX 6 1 0 0
BITMAP
FC
ENDCHAR
STARTCHAR char96
ENCODING 96
SWIDTH 640 0
DWIDTH 7 0
BBX 4 3 1 7
BITMAP
C0
60
30
ENDCHAR
STARTCHAR char97
ENCODING 97
SWIDTH 640 0
DWIDTH 7 0
BBX 6 7 0 0
BITMAP
38
44
04
3C
88
88
78
ENDCHAR
STARTCHAR char98
ENCODING 98
SWIDTH 640 0
DWIDTH 7 0
BBX 7 10 0 0
BITMAP
20
20
20
58
64
44
44
88
88
F0
ENDCHAR
STARTCHAR char99
ENCODING 99
SWIDTH 640 0
DWIDTH 7 0
BBX 6 7 0 0
BITMAP
1C
20
40
40
80
40
38
ENDCHAR
STARTCHAR char100
ENCODING 100
SWIDTH 640 0
DWIDTH 7 0
BBX 7 10 0 0
BITMAP
02
02
02
34
4C
44
44
88
98
68
ENDCHAR
STARTCHAR char101
ENCODING 101
SWIDTH 640 0
DWIDTH 7 0
BBX 6 7 0 0
BITMAP
38
44
44
7C
80
88
70
ENDCHAR
STARTCHAR char102
ENCODING 102
SWIDTH 640 0
DWIDTH 7 0
BBX 7 10 0 0
BITMAP
0E
10
10
7C
20
20
20
40
40
40
ENDCHAR
STARTCHAR char103
ENCODING 103
SWIDTH 640 0
DWIDTH 7 0
BBX 7 9 0 -2
BITMAP
1A
26
44
44
44
4C
68
08
70
ENDCHAR
STARTCHAR char104
ENCODING 104
SWIDTH 640 0
DWIDTH 7 0
BBX 7 10 0 0
BITMAP
20
20
20
58
64
44
44
88
88
88
ENDCHAR
STARTCHAR char105
ENCODING 105
SWIDTH 640 0
DWIDTH 7 0
BBX 5 10 0 0
BITMAP
08
08
00
70
10
10
10
20
20
20
ENDCHAR
STARTCHAR char106
ENCODING 106
SWIDTH 640 0
DWIDTH 7 0
BBX 5 10 2 0
BITMAP
08
08
00
70
10
10
10
20
20
C0
ENDCHAR
STARTCHAR char107
ENCODING 107
SWIDTH 640 0
DWIDTH 7 0
BBX 7 10 0 0
BITMAP
20
20
22
48
50
60
60
A0
90
88
ENDCHAR
STARTCHAR char108
ENCODING 108
SWIDTH 640 0
DWIDTH 7 0
BBX 5 10 0 0
BITMAP
38
08
08
10
10
10
10
20
20
20
ENDCHAR
STARTCHAR char109
ENCODING 109
SWIDTH 640 0
DWIDTH 7 0
BBX 7 7 0 0
BITMAP
7E
2A
2A
2A
54
54
54
ENDCHAR
STARTCHAR char110
ENCODING 110
SWIDTH 640 0
DWIDTH 7 0
BBX 6 7 0 0
BITMAP
58
64
44
44
88
88
88
ENDCHAR
STARTCHAR char111
ENCODING 111
SWIDTH 640 0
DWIDTH 7 0
BBX 6 7 0 0
BITMAP
38
44
44
44
88
88
70
ENDCHAR
STARTCHAR char112
ENCODING 112
SWIDTH 640 0
DWIDTH 7 0
BBX 7 9 0 -2
BITMAP
2C
32
44
44
44
44
F0
80
80
ENDCHAR
STARTCHAR char113
ENCODING 113
SWIDTH 640 0
DWIDTH 7 0
BBX 7 9 0 -2
BITMAP
1A
26
44
44
44
3C
08
08
08
ENDCHAR
STARTCHAR char114
ENCODING 114
SWIDTH 640 0
DWIDTH 7 0
BBX 6 7 0 0
BITMAP
4C
50
60
40
80
80
80
ENDCHAR
STARTCHAR char115
ENCODING 115
SWIDTH 640 0
DWIDTH 7 0
BBX 5 7 0 0
BITMAP
38
40
40
30
10
10
E0
ENDCHAR
STARTCHAR char116
ENCODING 116
SWIDTH 640 0
DWIDTH 7 0
BBX 7 10 0 0
BITMAP
10
10
10
7C
20
20
20
40
40
38
ENDCHAR
STARTCHAR char117
ENCODING 117
SWIDTH 640 0
DWIDTH 7 0
BBX 6 7 0 0
BITMAP
44
44
44
44
88
98
68
ENDCHAR
STARTCHAR char118
ENCODING 118
SWIDTH 640 0
DWIDTH 7 0
BBX 6 7 0 0
BITMAP
44
44
44
28
50
20
20
ENDCHAR
STARTCHAR char119
ENCODING 119
SWIDTH 640 0
DWIDTH 7 0
BBX 7 7 0 0
BITMAP
42
42
5A
7E
48
48
48
ENDCHAR
STARTCHAR char120
ENCODING 120
SWIDTH 640 0
DWIDTH 7 0
BBX 6 7 0 0
BITMAP
44
44
28
10
50
88
88
ENDCHAR
STARTCHAR char121
ENCODING 121
SWIDTH 640 0
DWIDTH 7 0
BBX 7 9 0 -2
BITMAP
22
22
44
28
28
10
20
40
C0
ENDCHAR
STARTCHAR char122
ENCODING 122
SWIDTH 640 0
DWIDTH 7 0
BBX 6 7 0 0
BITMAP
7C
04
08
10
40
80
F8
ENDCHAR
STARTCHAR char123
ENCODING 123
SWIDTH 640 0
DWIDTH 7 0
BBX 7 11 0 -1
BITMAP
06
08
08
08
10
60
10
10
20
20
18
ENDCHAR
STARTCHAR char124
ENCODING 124
SWIDTH 640 0
DWIDTH 7 0
BBX 3 11 3 0
BITMAP
20
20
20
20
40
40
40
40
80
80
80
ENDCHAR
STARTCHAR char125
ENCODING 125
SWIDTH 640 0
DWIDTH 7 0
BBX 7 11 0 -1
BITMAP
30
08
08
08
10
0C
10
10
20
20
C0
ENDCHAR
STARTCHAR char126
ENCODING 126
SWIDTH 640 0
DWIDTH 7 0
BBX 6 3 0 3
BITMAP
64
B4
98
ENDCHAR
STARTCHAR char160
ENCODING 160
SWIDTH 640 0
DWIDTH 7 0
BBX 0 0 0 0
BITMAP
ENDCHAR
STARTCHAR char161
ENCODING 161
SWIDTH 640 0
DWIDTH 7 0
BBX 8 11 1 0
BITMAP
08
00
3E
21
42
42
7C
42
84
84
F8
ENDCHAR
STARTCHAR char162
ENCODING 162
SWIDTH 640 0
DWIDTH 7 0
BBX 7 11 1 0
BITMAP
10
00
20
20
58
64
44
44
88
C8
B0
ENDCHAR
STARTCHAR char163
ENCODING 163
SWIDTH 640 0
DWIDTH 7 0
BBX 7 9 1 0
BITMAP
0C
12
20
20
78
10
20
48
B0
ENDCHAR
STARTCHAR char164
ENCODING 164
SWIDTH 640 0
DWIDTH 7 0
BBX 9 11 1 0
BITMAP
0400
0000
0F00
1080
4000
4000
4000
4000
8000
4200
3C00
ENDCHAR
STARTCHAR char165
ENCODING 165
SWIDTH 640 0
DWIDTH 7 0
BBX 7 9 1 0
BITMAP
08
00
38
44
40
40
80
88
70
ENDCHAR
STARTCHAR char166
ENCODING 166
SWIDTH 640 0
DWIDTH 7 0
BBX 8 11 1 0
BITMAP
04
00
3E
21
41
41
41
41
82
84
F8
ENDCHAR
STARTCHAR char167
ENCODING 167
SWIDTH 640 0
DWIDTH 7 0
BBX 8 12 0 -3
BITMAP
0E
22
20
18
24
44
44
24
18
08
88
70
ENDCHAR
STARTCHAR char168
ENCODING 168
SWIDTH 640 0
DWIDTH 7 0
BBX 12 12 1 0
BITMAP
0200
0200
0000
2220
2220
4440
2480
2A80
2A80
2200
2200
2200
ENDCHAR
STARTCHAR char169
ENCODING 169
SWIDTH 640 0
DWIDTH 7 0
BBX 11 9 1 0
BITMAP
0F80
1040
4E40
5140
5040
5140
9C80
4100
3E00
ENDCHAR
STARTCHAR char170
ENCODING 170
SWIDTH 640 0
DWIDTH 7 0
BBX 12 12 1 0
BITMAP
0080
0200
0000
2220
2220
4440
2480
2A80
2A80
2200
2200
2200
ENDCHAR
STARTCHAR char171
ENCODING 171
SWIDTH 640 0
DWIDTH 7 0
BBX 7 11 1 0
BITMAP
04
00
02
02
34
4C
44
44
88
98
68
ENDCHAR
STARTCHAR char172
ENCODING 172
SWIDTH 640 0
DWIDTH 7 0
BBX 7 12 3 0
BITMAP
10
10
00
82
82
88
88
50
20
40
40
40
ENDCHAR
STARTCHAR char173
ENCODING 173
SWIDTH 640 0
DWIDTH 7 0
BBX 4 1 0 3
BITMAP
F0
ENDCHAR
STARTCHAR char174
ENCODING 174
SWIDTH 640 0
DWIDTH 7 0
BBX 11 9 1 0
BITMAP
0F80
1040
4E40
4A40
4C40
4A40
9480
4100
3E00
ENDCHAR
STARTCHAR char175
ENCODING 175
SWIDTH 640 0
DWIDTH 7 0
BBX 7 11 3 0
BITMAP
28
00
82
82
88
88
50
20
40
40
40
ENDCHAR
STARTCHAR char176
ENCODING 176
SWIDTH 640 0
DWIDTH 7 0
BBX 8 11 1 0
BITMAP
08
00
3F
20
40
40
7C
40
80
80
80
ENDCHAR
STARTCHAR char177
ENCODING 177
SWIDTH 640 0
DWIDTH 7 0
BBX 6 11 0 0
BITMAP
08
00
0C
10
70
20
20
20
40
40
40
ENDCHAR
STARTCHAR char178
ENCODING 178
SWIDTH 640 0
DWIDTH 7 0
BBX 9 11 1 0
BITMAP
0400
0000
0F00
1080
4000
4000
4700
4100
8200
4600
3A00
ENDCHAR
STARTCHAR char179
ENCODING 179
SWIDTH 640 0
DWIDTH 7 0
BBX 8 12 1 -3
BITMAP
04
00
1A
26
22
44
44
4C
34
08
88
70
ENDCHAR
STARTCHAR char180
ENCODING 180
SWIDTH 640 0
DWIDTH 7 0
BBX 11 11 1 0
BITMAP
0200
0000
2020
3060
60C0
5140
5140
4A40
9480
8880
8880
ENDCHAR
STARTCHAR char181
ENCODING 181
SWIDTH 640 0
DWIDTH 7 0
BBX 8 9 1 0
BITMAP
04
00
52
6D
49
49
92
92
92
ENDCHAR
STARTCHAR char182
ENCODING 182
SWIDTH 640 0
DWIDTH 7 0
BBX 7 12 2 -3
BITMAP
1E
68
E8
E8
E8
D0
50
50
50
A0
A0
A0
ENDCHAR
STARTCHAR char183
ENCODING 183
SWIDTH 640 0
DWIDTH 7 0
BBX 8 11 1 0
BITMAP
08
00
3E
21
42
42
7C
40
80
80
80
ENDCHAR
STARTCHAR char184
ENCODING 184
SWIDTH 640 0
DWIDTH 7 0
BBX 11 10 0 0
BITMAP
0400
0200
0000
4440
4440
2480
2480
5500
2200
2200
ENDCHAR
STARTCHAR char185
ENCODING 185
SWIDTH 640 0
DWIDTH 7 0
BBX 8 12 1 -3
BITMAP
04
00
2C
32
22
44
44
64
58
80
80
80
ENDCHAR
STARTCHAR char186
ENCODING 186
SWIDTH 640 0
DWIDTH 7 0
BBX 11 10 0 0
BITMAP
0100
0200
0000
4440
4440
2480
2480
5500
2200
2200
ENDCHAR
STARTCHAR char187
ENCODING 187
SWIDTH 640 0
DWIDTH 7 0
BBX 8 11 1 0
BITMAP
08
00
1E
21
40
30
0C
02
84
84
78
ENDCHAR
STARTCHAR char188
ENCODING 188
SWIDTH 640 0
DWIDTH 7 0
BBX 8 13 1 -3
BITMAP
08
04
00
22
22
22
48
28
28
10
20
40
80
ENDCHAR
STARTCHAR char189
ENCODING 189
SWIDTH 640 0
DWIDTH 7 0
BBX 11 11 1 0
BITMAP
0500
0000
2220
2220
4440
2480
2A80
2A80
2200
2200
2200
ENDCHAR
STARTCHAR char190
ENCODING 190
SWIDTH 640 0
DWIDTH 7 0
BBX 11 9 0 0
BITMAP
0500
0000
4440
4440
2480
2480
5500
2200
2200
ENDCHAR
STARTCHAR char191
ENCODING 191
SWIDTH 640 0
DWIDTH 7 0
BBX 6 9 1 0
BITMAP
08
00
30
48
40
30
10
90
60
ENDCHAR
STARTCHAR char192
ENCODING 192
SWIDTH 640 0
DWIDTH 7 0
BBX 7 12 1 0
BITMAP
04
04
00
04
04
14
22
22
3E
82
82
82
ENDCHAR
STARTCHAR char193
ENCODING 193
SWIDTH 640 0
DWIDTH 7 0
BBX 8 12 1 0
BITMAP
01
04
00
04
04
14
22
22
3E
82
82
82
ENDCHAR
STARTCHAR char194
ENCODING 194
SWIDTH 640 0
DWIDTH 7 0
BBX 7 12 1 0
BITMAP
02
0A
00
04
04
14
22
22
3E
82
82
82
ENDCHAR
STARTCHAR char195
ENCODING 195
SWIDTH 640 0
DWIDTH 7 0
BBX 10 12 1 0
BITMAP
0280
0A00
0000
0400
0400
1400
2200
2200
3E00
8200
8200
8200
ENDCHAR
STARTCHAR char196
ENCODING 196
SWIDTH 640 0
DWIDTH 7 0
BBX 7 11 1 0
BITMAP
0A
00
04
04
14
22
22
3E
82
82
82
ENDCHAR
STARTCHAR char197
ENCODING 197
SWIDTH 640 0
DWIDTH 7 0
BBX 7 12 1 0
BITMAP
02
0A
04
04
04
14
22
22
3E
82
82
82
ENDCHAR
STARTCHAR char198
ENCODING 198
SWIDTH 640 0
DWIDTH 7 0
BBX 11 9 1 0
BITMAP
07E0
0A00
1400
2400
27C0
3C00
8800
8800
8F80
ENDCHAR
STARTCHAR char199
ENCODING 199
SWIDTH 640 0
DWIDTH 7 0
BBX 8 12 2 -3
BITMAP
0F
21
40
40
40
80
80
42
3C
10
10
60
ENDCHAR
STARTCHAR char200
ENCODING 200
SWIDTH 640 0
DWIDTH 7 0
BBX 8 12 1 0
BITMAP
04
04
00
3F
20
40
40
7E
40
80
80
FC
ENDCHAR
STARTCHAR char201
ENCODING 201
SWIDTH 640 0
DWIDTH 7 0
BBX 8 12 1 0
BITMAP
01
04
00
3F
20
40
40
7E
40
80
80
FC
ENDCHAR
STARTCHAR char202
ENCODING 202
SWIDTH 640 0
DWIDTH 7 0
BBX 8 12 1 0
BITMAP
02
0A
00
3F
20
40
40
7E
40
80
80
FC
ENDCHAR
STARTCHAR char203
ENCODING 203
SWIDTH 640 0
DWIDTH 7 0
BBX 8 11 1 0
BITMAP
0A
00
3F
20
40
40
7E
40
80
80
FC
ENDCHAR
STARTCHAR char204
ENCODING 204
SWIDTH 640 0
DWIDTH 7 0
BBX 5 12 0 0
BITMAP
10
10
00
10
10
20
20
20
20
40
40
40
ENDCHAR
STARTCHAR char205
ENCODING 205
SWIDTH 640 0
DWIDTH 7 0
BBX 5 12 1 0
BITMAP
08
20
00
20
20
40
40
40
40
80
80
80
ENDCHAR
STARTCHAR char206
ENCODING 206
SWIDTH 640 0
DWIDTH 7 0
BBX 6 12 0 0
BITMAP
08
28
00
10
10
20
20
20
20
40
40
40
ENDCHAR
STARTCHAR char207
ENCODING 207
SWIDTH 640 0
DWIDTH 7 0
BBX 5 11 0 0
BITMAP
28
00
10
10
20
20
20
20
40
40
40
ENDCHAR
STARTCHAR char208
ENCODING 208
SWIDTH 640 0
DWIDTH 7 0
BBX 12 12 1 0
BITMAP
0100
0500
0000
2220
2220
4440
2480
2A80
2A80
2200
2200
2200
ENDCHAR
STARTCHAR char209
ENCODING 209
SWIDTH 640 0
DWIDTH 7 0
BBX 10 12 1 0
BITMAP
0280
0A00
0000
2080
3080
5100
5100
4900
4500
8A00
8600
8200
ENDCHAR
STARTCHAR char210
ENCODING 210
SWIDTH 640 0
DWIDTH 7 0
BBX 11 12 1 0
BITMAP
0200
0200
0000
0F00
1080
4080
4080
4080
4080
8100
4200
3C00
ENDCHAR
STARTCHAR char211
ENCODING 211
SWIDTH 640 0
DWIDTH 7 0
BBX 11 12 1 0
BITMAP
0080
0200
0000
0F00
1080
4080
4080
4080
4080
8100
4200
3C00
ENDCHAR
STARTCHAR char212
ENCODING 212
SWIDTH 640 0
DWIDTH 7 0
BBX 11 12 1 0
BITMAP
0100
0500
0000
0F00
1080
4080
4080
4080
4080
8100
4200
3C00
ENDCHAR
STARTCHAR char213
ENCODING 213
SWIDTH 640 0
DWIDTH 7 0
BBX 11 12 1 0
BITMAP
0280
0A00
0000
0F00
1080
4080
4080
4080
4080
8100
4200
3C00
ENDCHAR
STARTCHAR char214
ENCODING 214
SWIDTH 640 0
DWIDTH 7 0
BBX 10 11 1 0
BITMAP
0900
0000
0F00
1080
4080
4080
4080
4080
8100
4200
3C00
ENDCHAR
STARTCHAR char215
ENCODING 215
SWIDTH 640 0
DWIDTH 7 0
BBX 7 11 2 0
BITMAP
10
00
FE
10
20
20
20
20
40
40
40
ENDCHAR
STARTCHAR char216
ENCODING 216
SWIDTH 640 0
DWIDTH 7 0
BBX 12 11 0 -1
BITMAP
0010
07A0
0840
10A0
2240
2240
2440
2840
2100
5E00
8000
ENDCHAR
STARTCHAR char217
ENCODING 217
SWIDTH 640 0
DWIDTH 7 0
BBX 8 12 1 0
BITMAP
04
04
00
21
21
42
42
42
42
84
84
78
ENDCHAR
STARTCHAR char218
ENCODING 218
SWIDTH 640 0
DWIDTH 7 0
BBX 8 12 1 0
BITMAP
01
04
00
21
21
42
42
42
42
84
84
78
ENDCHAR
STARTCHAR char219
ENCODING 219
SWIDTH 640 0
DWIDTH 7 0
BBX 8 12 1 0
BITMAP
02
0A
00
21
21
42
42
42
42
84
84
78
ENDCHAR
STARTCHAR char220
ENCODING 220
SWIDTH 640 0
DWIDTH 7 0
BBX 8 11 1 0
BITMAP
12
00
21
21
42
42
42
42
84
84
78
ENDCHAR
STARTCHAR char221
ENCODING 221
SWIDTH 640 0
DWIDTH 7 0
BBX 7 12 3 0
BITMAP
04
10
00
82
82
88
88
50
20
40
40
40
ENDCHAR
STARTCHAR char222
ENCODING 222
SWIDTH 640 0
DWIDTH 7 0
BBX 7 12 3 0
BITMAP
08
28
00
82
82
88
88
50
20
40
40
40
ENDCHAR
STARTCHAR char223
ENCODING 223
SWIDTH 640 0
DWIDTH 7 0
BBX 7 9 1 0
BITMAP
1C
22
44
44
58
44
88
88
B0
ENDCHAR
STARTCHAR char224
ENCODING 224
SWIDTH 640 0
DWIDTH 7 0
BBX 8 10 1 0
BITMAP
08
04
00
38
44
04
3C
88
88
74
ENDCHAR
STARTCHAR char225
ENCODING 225
SWIDTH 640 0
DWIDTH 7 0
BBX 8 10 1 0
BITMAP
04
08
00
38
44
04
3C
88
88
74
ENDCHAR
STARTCHAR char226
ENCODING 226
SWIDTH 640 0
DWIDTH 7 0
BBX 8 10 1 0
BITMAP
08
14
00
38
44
04
3C
88
88
74
ENDCHAR
STARTCHAR char227
ENCODING 227
SWIDTH 640 0
DWIDTH 7 0
BBX 8 10 1 0
BITMAP
0A
14
00
38
44
04
3C
88
88
74
ENDCHAR
STARTCHAR char228
ENCODING 228
SWIDTH 640 0
DWIDTH 7 0
BBX 8 9 1 0
BITMAP
14
00
38
44
04
3C
88
88
74
ENDCHAR
STARTCHAR char229
ENCODING 229
SWIDTH 640 0
DWIDTH 7 0
BBX 8 10 1 0
BITMAP
0C
12
0C
38
44
04
3C
88
88
74
ENDCHAR
STARTCHAR char230
ENCODING 230
SWIDTH 640 0
DWIDTH 7 0
BBX 10 7 1 0
BITMAP
3B80
4440
0440
3FC0
8800
8880
7700
ENDCHAR
STARTCHAR char231
ENCODING 231
SWIDTH 640 0
DWIDTH 7 0
BBX 7 10 1 -3
BITMAP
1C
22
20
40
40
44
38
20
10
60
ENDCHAR
STARTCHAR char232
ENCODING 232
SWIDTH 640 0
DWIDTH 7 0
BBX 7 10 1 0
BITMAP
10
08
00
38
44
44
7C
80
88
70
ENDCHAR
STARTCHAR char233
ENCODING 233
SWIDTH 640 0
DWIDTH 7 0
BBX 7 10 1 0
BITMAP
04
08
00
38
44
44
7C
80
88
70
ENDCHAR
STARTCHAR char234
ENCODING 234
SWIDTH 640 0
DWIDTH 7 0
BBX 7 10 1 0
BITMAP
08
14
00
38
44
44
7C
80
88
70
ENDCHAR
STARTCHAR char235
ENCODING 235
SWIDTH 640 0
DWIDTH 7 0
BBX 7 9 1 0
BITMAP
14
00
38
44
44
7C
80
88
70
ENDCHAR
STARTCHAR char236
ENCODING 236
SWIDTH 640 0
DWIDTH 7 0
BBX 4 10 0 0
BITMAP
20
10
00
20
20
20
20
40
40
40
ENDCHAR
STARTCHAR char237
ENCODING 237
SWIDTH 640 0
DWIDTH 7 0
BBX 4 10 1 0
BITMAP
10
20
00
40
40
40
40
80
80
80
ENDCHAR
STARTCHAR char238
ENCODING 238
SWIDTH 640 0
DWIDTH 7 0
BBX 5 10 0 0
BITMAP
10
28
00
20
20
20
20
40
40
40
ENDCHAR
STARTCHAR char239
ENCODING 239
SWIDTH 640 0
DWIDTH 7 0
BBX 5 9 0 0
BITMAP
28
00
20
20
20
20
40
40
40
ENDCHAR
STARTCHAR char240
ENCODING 240
SWIDTH 640 0
DWIDTH 7 0
BBX 11 10 0 0
BITMAP
0200
0500
0000
4440
4440
2480
2480
5500
2200
2200
ENDCHAR
STARTCHAR char241
ENCODING 241
SWIDTH 640 0
DWIDTH 7 0
BBX 7 10 1 0
BITMAP
0A
14
00
58
64
44
44
88
88
88
ENDCHAR
STARTCHAR char242
ENCODING 242
SWIDTH 640 0
DWIDTH 7 0
BBX 7 10 1 0
BITMAP
10
08
00
38
44
44
44
88
88
70
ENDCHAR
STARTCHAR char243
ENCODING 243
SWIDTH 640 0
DWIDTH 7 0
BBX 7 10 1 0
BITMAP
04
08
00
38
44
44
44
88
88
70
ENDCHAR
STARTCHAR char244
ENCODING 244
SWIDTH 640 0
DWIDTH 7 0
BBX 7 10 1 0
BITMAP
08
14
00
38
44
44
44
88
88
70
ENDCHAR
STARTCHAR char245
ENCODING 245
SWIDTH 640 0
DWIDTH 7 0
BBX 7 10 1 0
BITMAP
0A
14
00
38
44
44
44
88
88
70
ENDCHAR
STARTCHAR char246
ENCODING 246
SWIDTH 640 0
DWIDTH 7 0
BBX 7 9 1 0
BITMAP
14
00
38
44
44
44
88
88
70
ENDCHAR
STARTCHAR char247
ENCODING 247
SWIDTH 640 0
DWIDTH 7 0
BBX 5 11 0 0
BITMAP
10
00
10
10
70
20
20
20
40
40
60
ENDCHAR
STARTCHAR char248
ENCODING 248
SWIDTH 640 0
DWIDTH 7 0
BBX 8 7 0 0
BITMAP
1D
22
26
2A
64
44
B8
ENDCHAR
STARTCHAR char249
ENCODING 249
SWIDTH 640 0
DWIDTH 7 0
BBX 7 10 1 0
BITMAP
10
08
00
44
44
44
44
88
98
68
ENDCHAR
STARTCHAR char250
ENCODING 250
SWIDTH 640 0
DWIDTH 7 0
BBX 7 10 1 0
BITMAP
04
08
00
44
44
44
44
88
98
68
ENDCHAR
STARTCHAR char251
ENCODING 251
SWIDTH 640 0
DWIDTH 7 0
BBX 7 10 1 0
BITMAP
08
14
00
44
44
44
44
88
98
68
ENDCHAR
STARTCHAR char252
ENCODING 252
SWIDTH 640 0
DWIDTH 7 0
BBX 7 9 1 0
BITMAP
14
00
44
44
44
44
88
98
68
ENDCHAR
STARTCHAR char253
ENCODING 253
SWIDTH 640 0
DWIDTH 7 0
BBX 8 13 1 -3
BITMAP
02
04
00
22
22
22
48
28
28
10
20
40
80
ENDCHAR
STARTCHAR char254
ENCODING 254
SWIDTH 640 0
DWIDTH 7 0
BBX 8 13 1 -3
BITMAP
04
0A
00
22
22
22
48
28
28
10
20
40
80
ENDCHAR
STARTCHAR char255
ENCODING 255
SWIDTH 640 0
DWIDTH 7 0
BBX 8 12 1 -3
BITMAP
0A
00
22
22
12
28
28
18
10
20
20
C0
ENDCHAR
ENDFONT
